<?xml version="1.0" encoding="UTF-8"?>
<svg id="Layer_2" data-name="Layer 2" xmlns="http://www.w3.org/2000/svg" viewBox="0 0 113.39 113.39">
  <defs>
    <style>
      .cls-1 {
        fill: #f63;
      }

      .cls-2 {
        fill: #fff;
      }
    </style>
  </defs>
  <g id="Layer_1-2" data-name="Layer 1">
    <g id="Orange_GD_Ice.svg">
      <g id="uuid-2f8d8c68-7947-4061-94ee-304d4a67aa75" data-name="Layer 1-2">
        <g>
          <g>
            <rect class="cls-2" x="8.5" y="8.5" width="96.39" height="96.39" rx="19.2" ry="19.2"/>
            <path class="cls-1" d="M84.49,8.5c11.22,0,20.4,9.18,20.4,20.4v55.59c0,11.22-9.18,20.4-20.4,20.4H28.9c-11.22,0-20.4-9.18-20.4-20.4V28.9c0-11.22,9.18-20.4,20.4-20.4h55.59M84.49,0H28.9C12.96,0,0,12.96,0,28.9v55.59c0,15.94,12.96,28.9,28.9,28.9h55.59c15.94,0,28.9-12.96,28.9-28.9V28.9c0-15.94-12.96-28.9-28.9-28.9h0Z"/>
          </g>
          <g>
            <path class="cls-1" d="M36.84,46.66c1.63-1.02,3.55-1.54,5.76-1.54,1.79,0,3.49.32,5.07.94,1.6.64,3.12,1.58,4.59,2.85l-.06-12.85c-1.31-.77-2.93-1.38-4.86-1.81-1.94-.43-3.89-.64-5.84-.64-4.37,0-8.27,1.02-11.71,3.06-3.46,2.05-6.13,4.83-8.05,8.35-1.92,3.54-2.88,7.44-2.88,11.71s.96,8.42,2.88,11.91c1.92,3.49,4.59,6.21,8.05,8.18,3.44,1.95,7.38,2.94,11.78,2.94,2.53,0,4.91-.32,7.17-.98,2.24-.66,3.92-1.47,5.02-2.45v-23.99h-15.97v10.16h5.09v6.24c-.43.08-.91.13-1.47.13-1.95,0-3.65-.51-5.07-1.57-1.42-1.04-2.54-2.43-3.34-4.19s-1.2-3.76-1.2-6,.43-4.35,1.31-6.18c.88-1.84,2.13-3.26,3.76-4.29h-.02v.02Z"/>
            <path class="cls-1" d="M71.41,78.92h3.62c3.71,0,7.04-.93,9.98-2.78,2.94-1.86,5.26-4.48,6.98-7.89,1.71-3.41,2.58-7.31,2.58-11.71s-.85-8.29-2.54-11.63c-1.7-3.34-4.03-5.92-7.04-7.71-3.01-1.79-6.4-2.69-10.19-2.69h-15.73v44.44h12.37l-.02-.02h-.01ZM73.62,45.62c1.55,0,2.93.38,4.13,1.17,1.2.77,2.16,1.98,2.88,3.65.72,1.65,1.07,3.74,1.07,6.27s-.35,4.64-1.07,6.3c-.72,1.68-1.68,2.91-2.91,3.7-1.22.8-2.59,1.2-4.1,1.2h-2.21v-22.27h2.21s0-.02,0-.02Z"/>
          </g>
        </g>
      </g>
    </g>
  </g>
</svg>